<svg width="17" height="16" viewBox="0 0 17 16" fill="none" xmlns="http://www.w3.org/2000/svg">
<path d="M13.2537 5.32602L8.25569 10.198L3.25769 5.32602C3.16839 5.2388 3.04852 5.18996 2.92369 5.18996C2.79886 5.18996 2.67899 5.2388 2.58969 5.32602C2.54645 5.36838 2.5121 5.41895 2.48865 5.47475C2.4652 5.53056 2.45312 5.59048 2.45312 5.65102C2.45312 5.71155 2.4652 5.77147 2.48865 5.82728C2.5121 5.88309 2.54645 5.93365 2.58969 5.97602L7.90669 11.16C8.00007 11.251 8.1253 11.302 8.25569 11.302C8.38608 11.302 8.51132 11.251 8.60469 11.16L13.9217 5.97702C13.9652 5.93462 13.9998 5.88393 14.0235 5.82794C14.0471 5.77195 14.0593 5.71179 14.0593 5.65102C14.0593 5.59024 14.0471 5.53009 14.0235 5.47409C13.9998 5.4181 13.9652 5.36741 13.9217 5.32502C13.8324 5.2378 13.7125 5.18896 13.5877 5.18896C13.4629 5.18896 13.343 5.2378 13.2537 5.32502V5.32602Z" fill="#212121"/>
</svg>
