<svg width="17" height="16" viewBox="0 0 17 16" fill="none" xmlns="http://www.w3.org/2000/svg">
<path fill-rule="evenodd" clip-rule="evenodd" d="M8.02139 13.3656C7.87136 13.5156 7.66792 13.5999 7.45579 13.5999C7.24365 13.5999 7.04021 13.5156 6.89019 13.3656L2.09019 8.56562C1.94021 8.4156 1.85596 8.21216 1.85596 8.00002C1.85596 7.78789 1.94021 7.58445 2.09019 7.43442L6.89019 2.63442C7.04107 2.4887 7.24315 2.40806 7.45291 2.40988C7.66266 2.41171 7.86331 2.49584 8.01164 2.64417C8.15997 2.7925 8.2441 2.99315 8.24593 3.2029C8.24775 3.41266 8.16711 3.61474 8.02139 3.76562L4.58699 7.20002L13.8558 7.20002C14.068 7.20002 14.2714 7.28431 14.4215 7.43434C14.5715 7.58437 14.6558 7.78785 14.6558 8.00002C14.6558 8.2122 14.5715 8.41568 14.4215 8.56571C14.2714 8.71574 14.068 8.80002 13.8558 8.80002H4.58699L8.02139 12.2344C8.17136 12.3844 8.25562 12.5879 8.25562 12.8C8.25562 13.0122 8.17136 13.2156 8.02139 13.3656Z" fill="#212121"/>
</svg>
