<svg width="17" height="16" viewBox="0 0 17 16" fill="none" xmlns="http://www.w3.org/2000/svg">
<path fill-rule="evenodd" clip-rule="evenodd" d="M10.9495 0.015665C10.9612 -0.000951152 10.9841 -0.00498931 11.0007 0.00664544L12.1368 0.802131C12.1534 0.813766 12.1574 0.836666 12.1458 0.853281L10.5646 3.11148C11.3333 3.35706 11.857 3.62197 11.857 3.62197C11.857 3.62197 10.5769 5.82391 8.40567 5.82391C6.23445 5.82391 4.69161 3.77166 4.69161 3.77166C4.69161 3.77166 5.23867 3.42253 6.04961 3.1231L4.31523 1.05617C4.3022 1.04063 4.30423 1.01747 4.31977 1.00443L5.38217 0.112958C5.39773 0.0999194 5.42089 0.101946 5.43392 0.117485L7.62992 2.73458C7.81795 2.71331 8.00952 2.70142 8.20283 2.70142C8.48067 2.70142 8.75817 2.72254 9.02908 2.75838L10.9495 0.015665ZM11.3791 5.92819C11.9585 5.51437 12.8353 4.43431 12.8353 4.43431C12.8353 4.43431 15.0748 6.209 15.0748 9.972C15.0748 13.735 11.203 15.9998 11.203 15.9998C11.203 15.9998 9.35317 14.1316 8.89905 11.7634C8.44495 9.39528 9.5708 6.76572 9.5708 6.76572C9.5708 6.76572 10.7997 6.342 11.3791 5.92819ZM5.13902 5.92819C4.55961 5.51437 3.68286 4.43431 3.68286 4.43431C3.68286 4.43431 1.44336 6.209 1.44336 9.972C1.44336 13.735 5.31511 15.9998 5.31511 15.9998C5.31511 15.9998 7.16495 14.1316 7.61908 11.7634C8.07317 9.39528 6.94733 6.76572 6.94733 6.76572C6.94733 6.76572 5.71845 6.342 5.13902 5.92819Z" fill="#212121"/>
</svg>
