<svg width="17" height="16" viewBox="0 0 17 16" fill="none" xmlns="http://www.w3.org/2000/svg">
<rect x="4.25586" y="12.8" width="9.6" height="8" transform="rotate(-90 4.25586 12.8)" fill="#212121"/>
<path d="M7.32253 10.8L12.0225 6.1L11.0892 5.16667L7.32253 8.93333L5.42253 7.03333L4.48919 7.96667L7.32253 10.8ZM3.58919 14C3.22253 14 2.90875 13.8696 2.64786 13.6087C2.38697 13.3478 2.2563 13.0338 2.25586 12.6667V3.33333C2.25586 2.96667 2.38653 2.65289 2.64786 2.392C2.90919 2.13111 3.22297 2.00044 3.58919 2H12.9225C13.2892 2 13.6032 2.13067 13.8645 2.392C14.1259 2.65333 14.2563 2.96711 14.2559 3.33333V12.6667C14.2559 13.0333 14.1254 13.3473 13.8645 13.6087C13.6036 13.87 13.2896 14.0004 12.9225 14H3.58919Z" fill="#C9D2EA"/>
</svg>
