<svg width="17" height="16" viewBox="0 0 17 16" fill="none" xmlns="http://www.w3.org/2000/svg">
<g clip-path="url(#clip0_52_36664)">
<path fill-rule="evenodd" clip-rule="evenodd" d="M7.42395 14.1516C7.72792 14.1981 8.03923 14.2222 8.35623 14.2222C11.7313 14.2222 14.4673 11.4862 14.4673 8.11112C14.4673 4.73603 11.7313 2 8.35623 2C8.1298 2 7.9062 2.01232 7.68617 2.03632C9.36039 3.30472 10.4673 5.50194 10.4673 8C10.4673 10.6263 9.24386 12.92 7.42395 14.1516ZM8.24511 16C12.6634 16 16.2451 12.4183 16.2451 8C16.2451 3.58172 12.6634 0 8.24511 0C3.82683 0 0.245117 3.58172 0.245117 8C0.245117 12.4183 3.82683 16 8.24511 16Z" fill="#212121"/>
</g>
<defs>
<clipPath id="clip0_52_36664">
<rect width="16" height="16" fill="white" transform="translate(0.255859)"/>
</clipPath>
</defs>
</svg>
