<svg width="17" height="16" viewBox="0 0 17 16" fill="none" xmlns="http://www.w3.org/2000/svg">
<path fill-rule="evenodd" clip-rule="evenodd" d="M9.0278 7.96503C9.13623 7.89891 9.22823 7.76034 9.30242 7.60634C10.2788 8.00541 10.965 8.94841 10.965 10.0481C10.965 11.5091 9.75405 12.6934 8.2603 12.6934C7.64711 12.6934 7.08158 12.4938 6.62792 12.1575C6.47911 12.087 6.35667 12.0193 6.25648 11.9639C6.10108 11.878 5.99917 11.8217 5.93536 11.8305C5.74883 11.8562 5.80298 12.0278 5.8522 12.1837C5.88561 12.2896 5.91677 12.3883 5.86855 12.429C5.81811 12.4716 5.65473 12.3158 5.46383 12.1338C5.20395 11.886 4.89308 11.5896 4.74648 11.6787C4.63058 11.7491 4.74311 11.94 4.88086 12.1738L4.89108 12.1911C4.94927 12.2899 5.0167 12.3906 5.07823 12.4824C5.20333 12.669 5.30408 12.8193 5.25367 12.8448C5.19273 12.8755 4.76817 12.589 4.41039 12.1911C4.2723 12.0376 4.13855 11.8712 4.01423 11.7165V11.7165C3.74214 11.3779 3.51545 11.0959 3.3882 11.1293C3.23513 11.1695 3.35093 11.4852 3.52108 11.7891C3.60064 11.9312 3.69423 12.0758 3.77527 12.2011V12.2012C3.9013 12.396 3.99695 12.5438 3.96227 12.562C3.91545 12.5865 3.50355 12.1848 3.22378 11.6787C3.05761 11.378 2.91808 11.0457 2.80511 10.7768C2.68261 10.4851 2.59136 10.2678 2.53127 10.2459C2.3225 10.1699 2.3225 10.5956 2.40623 11.2099C2.41715 11.2901 2.43342 11.3742 2.45345 11.4598C3.26545 14.087 5.75986 16 8.71108 16C12.321 16 15.2474 13.1379 15.2474 9.60725C15.2474 6.24688 12.5965 3.49209 9.22836 3.23419C9.23261 3.07589 9.31523 2.76197 9.31523 2.76197C9.31523 2.76197 9.90983 1.32335 9.94127 1.01593C9.94333 0.995531 9.9458 0.973359 9.94845 0.949747C9.98548 0.617591 10.0544 0 9.52308 0C9.23933 0 9.10739 0.211083 8.95649 0.452497C8.89855 0.545175 8.8378 0.642328 8.76461 0.733719C8.23748 1.39199 7.35111 2.21402 6.84852 2.65197C5.7862 3.57762 4.74395 4.33838 4.13608 4.78206L4.13605 4.78209C3.85958 4.98387 3.67298 5.12009 3.61523 5.17637C3.18005 5.60062 1.61967 8.41519 1.61967 8.41519C1.61967 8.41519 1.11506 9.31819 1.29442 9.50134C1.47378 9.68447 1.9063 9.6425 1.9063 9.6425C1.9063 9.6425 7.71695 8.30947 8.23717 8.20434C8.37723 8.17603 8.47611 8.15969 8.55202 8.14716C8.75811 8.11313 8.79511 8.107 9.0278 7.96503ZM4.91945 6.252C4.60755 6.54847 4.09027 7.25612 4.09027 7.25612C4.09027 7.25612 5.05164 7.31534 5.58111 6.81206C6.11061 6.30875 5.9893 5.45103 5.9893 5.45103C5.9893 5.45103 5.23133 5.95553 4.91945 6.252Z" fill="#212121"/>
</svg>
