<svg width="17" height="16" viewBox="0 0 17 16" fill="none" xmlns="http://www.w3.org/2000/svg">
<g clip-path="url(#clip0_52_36662)">
<path fill-rule="evenodd" clip-rule="evenodd" d="M3.46605 12.6868L6.03236 11.9427L8.24892 15.9955C8.25183 16.0008 8.25936 16.0008 8.26223 15.9955L10.4788 11.9427L13.0451 12.6868C13.0509 12.6885 13.0562 12.6831 13.0545 12.6774L12.3103 10.1618L16.2514 8.00638C16.2566 8.0035 16.2566 7.99597 16.2514 7.99309L12.2778 5.81984L13.0545 3.19453C13.0562 3.18878 13.0509 3.18344 13.0451 3.18509L10.4186 3.94669L8.26223 0.00394338C8.25936 -0.00131436 8.25183 -0.00131451 8.24895 0.00394325L6.09258 3.94669L3.46605 3.18509C3.4603 3.18344 3.45495 3.18878 3.45667 3.19453L4.23339 5.81984L0.259803 7.99309C0.254545 7.99597 0.254545 8.0035 0.259803 8.00638L4.20089 10.1618L3.45667 12.6774C3.45495 12.6831 3.4603 12.6885 3.46605 12.6868ZM5.45748 8.02738L7.27558 9.02172L8.26992 10.8398C8.2728 10.8451 8.28036 10.8451 8.28323 10.8398L9.27758 9.02172L11.0956 8.02738C11.1009 8.0245 11.1009 8.01694 11.0956 8.01406L9.27758 7.01972L8.28323 5.20166C8.28036 5.19638 8.2728 5.19638 8.26992 5.20166L7.27558 7.01972L5.45748 8.01406C5.45223 8.01694 5.45223 8.0245 5.45748 8.02738Z" fill="#212121"/>
</g>
<defs>
<clipPath id="clip0_52_36662">
<rect width="16" height="16" fill="white" transform="translate(0.255859)"/>
</clipPath>
</defs>
</svg>
