<svg width="17" height="16" viewBox="0 0 17 16" fill="none" xmlns="http://www.w3.org/2000/svg">
<g clip-path="url(#clip0_52_36660)">
<path fill-rule="evenodd" clip-rule="evenodd" d="M3.01316 1.33018C3.20679 0.565669 3.89939 0 4.72408 0C5.34267 0 5.88695 0.318272 6.20208 0.8H6.71811C7.0387 0.470987 7.48661 0.266667 7.98227 0.266667C8.70895 0.266667 9.33308 0.705881 9.60364 1.33333H10.0357C10.3064 1.16433 10.6263 1.06667 10.9689 1.06667C11.6956 1.06667 12.3197 1.50588 12.5903 2.13333H13.7651C13.7752 2.13333 13.7846 2.13604 13.7927 2.14075C13.8463 2.13584 13.9007 2.13333 13.9556 2.13333C14.9303 2.13333 15.7204 2.92348 15.7204 3.89819V9.19019L15.7205 9.2L15.7204 9.20981V9.28603C15.7204 9.31831 15.7195 9.35047 15.7178 9.38247C15.6116 13.0537 12.3105 16 8.25377 16C4.13005 16 0.787109 12.9555 0.787109 9.2C0.787109 7.38722 1.56601 5.74009 2.83566 4.52109C2.83249 6.28838 2.86234 8.11544 2.99994 8.08409C3.36839 8.00009 3.08052 2.52623 3.01316 1.33018Z" fill="#212121"/>
</g>
<defs>
<clipPath id="clip0_52_36660">
<rect width="16" height="16" fill="white" transform="translate(0.255859)"/>
</clipPath>
</defs>
</svg>
