<svg width="17" height="16" viewBox="0 0 17 16" fill="none" xmlns="http://www.w3.org/2000/svg">
<g clip-path="url(#clip0_52_36697)">
<path d="M1.00586 2.06995H15.5059C15.7048 2.06995 15.8955 2.16872 16.0362 2.34453C16.1768 2.52035 16.2559 2.75881 16.2559 3.00745C16.2559 3.25609 16.1768 3.49454 16.0362 3.67036C15.8955 3.84617 15.7048 3.94495 15.5059 3.94495H1.00586C0.806947 3.94495 0.616182 3.84617 0.475529 3.67036C0.334877 3.49454 0.255859 3.25609 0.255859 3.00745C0.255859 2.75881 0.334877 2.52035 0.475529 2.34453C0.616182 2.16872 0.806947 2.06995 1.00586 2.06995ZM3.25586 8.00745C3.25586 7.75881 3.33488 7.52035 3.47553 7.34453C3.61618 7.16872 3.80695 7.06995 4.00586 7.06995H12.5059C12.7048 7.06995 12.8955 7.16872 13.0362 7.34453C13.1768 7.52035 13.2559 7.75881 13.2559 8.00745C13.2559 8.25609 13.1768 8.49454 13.0362 8.67036C12.8955 8.84617 12.7048 8.94495 12.5059 8.94495H4.00586C3.80695 8.94495 3.61618 8.84617 3.47553 8.67036C3.33488 8.49454 3.25586 8.25609 3.25586 8.00745ZM6.25586 13.0074C6.25586 12.7588 6.33488 12.5203 6.47553 12.3445C6.61618 12.1687 6.80695 12.0699 7.00586 12.0699H9.50586C9.70477 12.0699 9.89554 12.1687 10.0362 12.3445C10.1768 12.5203 10.2559 12.7588 10.2559 13.0074C10.2559 13.2561 10.1768 13.4945 10.0362 13.6704C9.89554 13.8462 9.70477 13.9449 9.50586 13.9449H7.00586C6.80695 13.9449 6.61618 13.8462 6.47553 13.6704C6.33488 13.4945 6.25586 13.2561 6.25586 13.0074Z" fill="#212121"/>
</g>
<defs>
<clipPath id="clip0_52_36697">
<rect width="16" height="16" fill="white" transform="translate(0.255859)"/>
</clipPath>
</defs>
</svg>
