<svg width="17" height="16" viewBox="0 0 17 16" fill="none" xmlns="http://www.w3.org/2000/svg">
<path fill-rule="evenodd" clip-rule="evenodd" d="M11.2639 12.3561C11.4616 11.6332 11.0779 10.1472 11.0779 10.1472C11.0779 10.1472 10.7996 11.3578 10.3647 11.8052C9.99371 12.1869 9.53918 12.4516 8.8873 12.5212C9.42027 12.2623 9.7868 11.7225 9.7868 11.0986C9.7868 10.2228 9.06455 9.51278 8.17361 9.51278C7.28268 9.51278 6.56039 10.2228 6.56039 11.0986C6.56039 11.3378 6.6143 11.5646 6.71077 11.768C6.15352 11.3241 6.06589 10.6123 6.06589 10.6123C6.06589 10.6123 5.44364 13.1958 7.15821 14.411C8.87274 15.6263 12.2315 14.5817 12.2315 14.5817C12.2315 14.5817 7.42493 17.9637 3.86324 14.2828C0.795139 11.112 3.06246 6.93759 3.06246 6.93759C3.06246 6.93759 2.96454 7.32484 2.96454 7.77437C2.96454 8.22391 3.20827 8.56594 3.20827 8.56594C3.20827 8.56594 3.9353 7.03347 4.50111 6.41025C5.03661 5.82044 5.70789 5.34206 6.28771 4.92887C6.73402 4.61081 7.12614 4.33138 7.36033 4.06947C8.65024 2.62715 7.85933 0 7.85933 0C7.85933 0 9.31339 1.28188 9.71933 2.93743C9.87408 3.5685 9.77452 4.28653 9.68552 4.92863C9.54102 5.971 9.42424 6.81328 10.4681 6.75863C12.1551 6.67028 10.6892 4.06947 10.6892 4.06947C10.6892 4.06947 14.5158 6.08072 14.2299 9.59828C13.944 13.1158 10.0472 13.9155 10.0472 13.9155C10.0472 13.9155 11.0662 13.0789 11.2639 12.3561Z" fill="#212121"/>
</svg>
