<svg width="17" height="16" viewBox="0 0 17 16" fill="none" xmlns="http://www.w3.org/2000/svg">
<g clip-path="url(#clip0_52_36650)">
<path fill-rule="evenodd" clip-rule="evenodd" d="M5.84061 14.9267C8.18445 14.9267 10.1911 13.6241 11.0195 11.7774C11.0296 11.7549 7.69358 12.6444 7.79995 12.33C7.84745 12.1896 9.89245 11.4425 11.3824 10.5711C12.2387 10.0703 12.633 9.01006 12.633 9.01006C12.633 9.01006 11.1903 9.71053 10.461 9.88822C8.99123 10.2463 7.69745 10.2078 7.69745 10.1705C7.69745 10.0898 9.84573 9.68159 12.8316 7.86206C14.2361 7.00621 14.6175 5.53203 14.6175 5.53203C14.6175 5.53203 13.0735 6.45178 12.14 6.75543C9.92639 7.47553 7.90633 7.69253 7.90633 7.59509C7.90633 7.38646 9.68405 6.89762 11.5689 5.98434C12.5489 5.5095 13.3976 4.88912 14.3811 4.19921C15.9904 3.07043 16.2558 1.06006 16.2558 1.06006C16.2558 1.06006 14.6686 2.08381 13.894 2.42379C10.6978 3.82665 7.87552 4.56253 5.84061 4.72184C2.76886 4.96234 0.255859 7.10556 0.255859 9.88822C0.255859 12.6709 2.75623 14.9267 5.84061 14.9267Z" fill="#212121"/>
</g>
<defs>
<clipPath id="clip0_52_36650">
<rect width="16" height="16" fill="white" transform="translate(0.255859)"/>
</clipPath>
</defs>
</svg>
