<svg width="17" height="16" viewBox="0 0 17 16" fill="none" xmlns="http://www.w3.org/2000/svg">
<g clip-path="url(#clip0_52_36682)">
<path fill-rule="evenodd" clip-rule="evenodd" d="M11.7856 15.9446C10.3424 16.0185 8.69011 16.0185 8.12861 15.9446C3.74867 15.3684 0.255859 12.166 0.255859 7.8375C0.255859 3.50897 3.83758 0 8.25586 0C12.6741 0 16.2559 3.50897 16.2559 7.8375C16.2559 9.85066 15.4811 11.6865 14.2077 13.0746C13.862 13.4515 14.3364 13.7159 14.8184 13.9845C15.2912 14.248 15.7712 14.5155 15.4922 14.8973C15.1848 15.3179 13.5181 15.8559 11.7856 15.9446ZM7.13086 6.85781C7.13086 7.53412 6.5712 8.08241 5.88086 8.08241C5.19052 8.08241 4.63086 7.53412 4.63086 6.85781C4.63086 6.40422 4.88258 6.00825 5.25661 5.79659C5.27814 6.38631 5.76302 6.85778 6.35802 6.85778L7.13086 6.85781ZM11.0051 5.79659C10.9836 6.38631 10.4987 6.85778 9.9037 6.85778H9.13086C9.13086 7.53409 9.69052 8.08241 10.3809 8.08241C11.0712 8.08241 11.6309 7.53412 11.6309 6.85781C11.6309 6.40422 11.3791 6.00825 11.0051 5.79659Z" fill="#212121"/>
</g>
<defs>
<clipPath id="clip0_52_36682">
<rect width="16" height="16" fill="white" transform="translate(0.255859)"/>
</clipPath>
</defs>
</svg>
