<svg width="15" height="16" viewBox="0 0 15 16" fill="none" xmlns="http://www.w3.org/2000/svg">
<path fill-rule="evenodd" clip-rule="evenodd" d="M2.28833 13.4439C2.23341 13.3922 2.1791 13.3396 2.12542 13.2859C-0.708473 10.452 -0.708473 5.85736 2.12542 3.02349C4.9593 0.189584 13.9892 0 13.9892 0C13.9892 0 15.2217 10.452 12.3879 13.2859C9.87098 15.8028 5.9653 16.0843 3.1377 14.1306L5.41608 11.3346L9.05827 10.5483L6.08517 10.2511L7.97461 8.32727L10.1254 7.85611L8.42467 7.35246L10.1254 4.28446L7.7063 6.99783L6.77214 5.67961L7.10099 7.85611L5.41608 9.75555L4.63505 7.35243V10.5483L2.28833 13.4439Z" fill="#212121"/>
</svg>
