<svg width="17" height="16" viewBox="0 0 17 16" fill="none" xmlns="http://www.w3.org/2000/svg">
<g clip-path="url(#clip0_52_36666)">
<path fill-rule="evenodd" clip-rule="evenodd" d="M3.77973 13.7423C3.77539 13.7423 3.77236 13.738 3.7738 13.7339L7.85864 2.19169C7.85955 2.18918 7.86192 2.1875 7.86458 2.1875H12.2253C12.2279 2.1875 12.2303 2.18919 12.2312 2.19172L16.2555 13.734C16.2569 13.7381 16.2538 13.7423 16.2495 13.7423H3.90248H3.77973ZM0.26215 13.7875C0.257763 13.7875 0.254725 13.7831 0.256264 13.779L3.29813 5.658C3.29905 5.65553 3.30139 5.65391 3.30402 5.65391H5.94705C5.95142 5.65391 5.95445 5.65825 5.95295 5.66234L3.01156 13.7833C3.01066 13.7858 3.00829 13.7875 3.00565 13.7875H0.26215Z" fill="#212121"/>
</g>
<defs>
<clipPath id="clip0_52_36666">
<rect width="16" height="16" fill="white" transform="translate(0.255859)"/>
</clipPath>
</defs>
</svg>
