<svg width="17" height="16" viewBox="0 0 17 16" fill="none" xmlns="http://www.w3.org/2000/svg">
<g clip-path="url(#clip0_52_36668)">
<path fill-rule="evenodd" clip-rule="evenodd" d="M12.2653 1.22009L12.3145 5.54354L8.54357 7.35375L8.49707 3.2716L12.2653 1.22009Z" fill="#212121"/>
<path fill-rule="evenodd" clip-rule="evenodd" d="M16.0453 8.03273L12.3123 10.168L8.57715 8.02936L12.3104 6.06836L16.0453 8.03273Z" fill="#212121"/>
<path fill-rule="evenodd" clip-rule="evenodd" d="M7.91348 8.03273L4.18051 10.168L0.445312 8.02936L4.17857 6.06836L7.91348 8.03273Z" fill="#212121"/>
<path fill-rule="evenodd" clip-rule="evenodd" d="M4.13867 1.20239L8.01323 3.12132L7.91417 7.30307L4.25586 5.49126L4.13867 1.20239Z" fill="#212121"/>
<path fill-rule="evenodd" clip-rule="evenodd" d="M12.3707 14.7977L8.49609 12.8788L8.59516 8.69702L12.2535 10.5089L12.3707 14.7977Z" fill="#212121"/>
<path fill-rule="evenodd" clip-rule="evenodd" d="M4.27191 14.8367L4.22266 10.5132L7.99362 8.703L8.04013 12.7851L4.27191 14.8367Z" fill="#212121"/>
</g>
<defs>
<clipPath id="clip0_52_36668">
<rect width="16" height="16" fill="white" transform="translate(0.255859)"/>
</clipPath>
</defs>
</svg>
