<svg width="17" height="16" viewBox="0 0 17 16" fill="none" xmlns="http://www.w3.org/2000/svg">
<g clip-path="url(#clip0_52_36646)">
<path fill-rule="evenodd" clip-rule="evenodd" d="M13.6253 12.2953C15.241 11.0034 16.2559 9.13675 16.2559 7.06094C16.2559 3.16128 12.6741 0 8.25586 0C3.83758 0 0.255859 3.16128 0.255859 7.06094C0.255859 9.06181 1.19879 10.8683 2.71384 12.1532C2.62202 12.4702 2.57165 12.815 2.57165 13.1756C2.57165 14.7355 3.5142 16 4.67692 16C5.43242 16 6.09498 15.4661 6.46639 14.6642C6.8378 15.4661 7.50036 16 8.25586 16C8.94455 16 9.55598 15.5564 9.94008 14.8705C10.3242 15.5564 10.9356 16 11.6243 16C12.787 16 13.7295 14.7355 13.7295 13.1756C13.7295 12.8682 13.6929 12.5723 13.6253 12.2953ZM12.8875 7.20097C12.8875 9.18078 10.7667 10.7858 8.15061 10.7858C5.53452 10.7858 3.41377 9.18078 3.41377 7.20097C3.41377 5.22116 5.53452 3.61619 8.15061 3.61619C10.7667 3.61619 12.8875 5.22116 12.8875 7.20097Z" fill="#212121"/>
</g>
<defs>
<clipPath id="clip0_52_36646">
<rect width="16" height="16" fill="white" transform="translate(0.255859)"/>
</clipPath>
</defs>
</svg>
