<svg width="296" height="44" viewBox="0 0 296 44" fill="none" xmlns="http://www.w3.org/2000/svg">
<path d="M23.8253 25.2344V9.92728C23.8253 9.07332 23.6972 8.5396 23.441 8.32611C23.1848 8.06993 22.6511 7.94183 21.8399 7.94183H16.2678V27.2198H21.8399C22.6511 27.2198 23.1848 27.0917 23.441 26.8356C23.6972 26.5794 23.8253 26.0457 23.8253 25.2344ZM0 4.16309H35.0335C38.4066 4.16309 40.0931 5.84964 40.0931 9.22276V25.9389C40.0931 29.312 38.4066 30.9986 35.0335 30.9986H16.2678V44H0V4.16309Z" fill="#416EDF"/>
<path d="M65.8691 38.2358V18.7016C65.8691 17.8903 65.741 17.3566 65.4848 17.1004C65.2286 16.8442 64.6949 16.7161 63.8836 16.7161H61.4499C60.6386 16.7161 60.1049 16.8442 59.8487 17.1004C59.5925 17.3566 59.4644 17.8903 59.4644 18.7016V38.2358C59.4644 39.0897 59.5925 39.6448 59.8487 39.901C60.1049 40.1145 60.6386 40.2212 61.4499 40.2212H63.8836C64.6949 40.2212 65.2286 40.1145 65.4848 39.901C65.741 39.6448 65.8691 39.0897 65.8691 38.2358ZM49.1529 12.9374H76.1806C79.5537 12.9374 81.2403 14.6239 81.2403 17.9971V38.9403C81.2403 42.3134 79.5537 44 76.1806 44H49.1529C45.7798 44 44.0933 42.3134 44.0933 38.9403V17.9971C44.0933 14.6239 45.7798 12.9374 49.1529 12.9374Z" fill="#416EDF"/>
<path d="M85.2402 1.15283H100.611V44H85.2402V1.15283ZM124.437 12.9374L115.406 28.3086L124.437 44H109.066L100.611 28.3086L109.194 12.9374H124.437Z" fill="#416EDF"/>
<path d="M164.751 0L153.351 9.92722H141.438L150.148 0H164.751ZM143.808 26.195H151.173V18.7016C151.173 17.8903 151.045 17.3566 150.789 17.1004C150.575 16.8442 150.042 16.7161 149.188 16.7161H145.793C144.982 16.7161 144.448 16.8442 144.192 17.1004C143.936 17.3566 143.808 17.8903 143.808 18.7016V26.195ZM133.496 12.9374H160.972C164.345 12.9374 166.032 14.624 166.032 17.9971V29.9738H143.808V38.2358C143.808 39.0897 143.936 39.6448 144.192 39.901C144.448 40.1145 144.982 40.2212 145.793 40.2212H149.188C150.042 40.2212 150.575 40.1145 150.789 39.901C151.045 39.6448 151.173 39.0897 151.173 38.2358V33.4963H166.032V38.9403C166.032 42.3134 164.345 44 160.972 44H133.496C130.123 44 128.437 42.3134 128.437 38.9403V17.9971C128.437 14.624 130.123 12.9374 133.496 12.9374Z" fill="#416EDF"/>
<path d="M187.389 40.2212H189.182C190.805 40.2212 191.616 39.6021 191.616 38.3639V18.5735C191.616 17.3353 190.805 16.7161 189.182 16.7161H187.389C186.578 16.7161 186.044 16.8442 185.788 17.1004C185.531 17.3566 185.403 17.8903 185.403 18.7016V38.2358C185.403 39.0897 185.531 39.6448 185.788 39.901C186.044 40.1145 186.578 40.2212 187.389 40.2212ZM191.616 1.15283H206.987V44H191.616V42.3348C191.018 43.4449 189.78 44 187.901 44H175.092C171.719 44 170.032 42.3134 170.032 38.9403V17.9971C170.032 14.624 171.719 12.9374 175.092 12.9374H187.901C189.78 12.9374 191.018 13.4925 191.616 14.6026V1.15283Z" fill="#416EDF"/>
<path d="M226.358 26.195H233.723V18.7016C233.723 17.8903 233.595 17.3566 233.339 17.1004C233.126 16.8442 232.592 16.7161 231.738 16.7161H228.343C227.532 16.7161 226.998 16.8442 226.742 17.1004C226.486 17.3566 226.358 17.8903 226.358 18.7016V26.195ZM216.046 12.9374H243.522C246.896 12.9374 248.582 14.6239 248.582 17.9971V29.9738H226.358V38.2358C226.358 39.0897 226.486 39.6448 226.742 39.901C226.998 40.1145 227.532 40.2212 228.343 40.2212H231.738C232.592 40.2212 233.126 40.1145 233.339 39.901C233.595 39.6448 233.723 39.0897 233.723 38.2358V33.4963H248.582V38.9403C248.582 42.3134 246.896 44 243.522 44H216.046C212.673 44 210.987 42.3134 210.987 38.9403V17.9971C210.987 14.6239 212.673 12.9374 216.046 12.9374Z" fill="#416EDF"/>
<path d="M280.634 25.9388L295.045 44H276.856L270.323 35.4177L262.701 44H253.607L266.032 30.0378L252.582 12.9374H270.451L276.151 20.687L283.004 12.9374H292.355L280.634 25.9388Z" fill="#416EDF"/>
</svg>
