<svg width="17" height="16" viewBox="0 0 17 16" fill="none" xmlns="http://www.w3.org/2000/svg">
<g clip-path="url(#clip0_52_36684)">
<path fill-rule="evenodd" clip-rule="evenodd" d="M14.5035 13.287C14.5035 13.287 12.486 14.9051 8.47127 14.2355C5.42533 13.7275 3.80077 10.3698 3.80077 8.56497C3.80077 4.28591 6.96783 3.31213 9.10898 3.31213C11.2501 3.31213 12.6469 5.39963 12.6469 7.01588C12.6469 8.63213 11.5038 10.0458 9.7248 10.0458C7.94586 10.0458 7.41898 8.79691 7.41898 7.64869C7.41898 6.5005 8.34795 6.09597 9.19517 6.09597C10.0424 6.09597 10.3325 6.81928 10.3325 7.44094C10.3325 8.06263 9.85014 8.28525 9.44783 8.28525C9.04551 8.28525 9.00573 8.08228 8.85176 7.86897C8.69776 7.65569 9.04814 6.84831 8.47127 6.84831C7.89439 6.84831 7.78686 7.77647 7.78686 7.77647C7.78686 7.77647 7.99717 9.56813 9.7248 9.53722C11.4525 9.50628 12.272 8.17066 12.0339 6.84831C11.7957 5.52594 10.5123 4.12078 8.26002 4.40472C6.0077 4.68866 5.08811 6.96441 5.49345 9.39641C5.8988 11.8284 8.81233 13.2376 11.1031 12.7306C13.3939 12.2236 15.6755 10.5652 15.6755 6.36041C15.6755 2.15559 12.0339 -0.371881 7.69151 0.0446606C3.34917 0.4612 0.65364 4.25756 0.826178 8.81897C0.998715 13.3804 5.32695 15.8647 8.98692 15.9927C12.6469 16.1207 14.8906 14.0021 14.8906 14.0021C14.8906 14.0021 15.3952 13.5521 15.1974 13.2008C14.9995 12.8494 14.5035 13.287 14.5035 13.287Z" fill="#212121"/>
</g>
<defs>
<clipPath id="clip0_52_36684">
<rect width="16" height="16" fill="white" transform="translate(0.255859)"/>
</clipPath>
</defs>
</svg>
