<svg width="17" height="16" viewBox="0 0 17 16" fill="none" xmlns="http://www.w3.org/2000/svg">
<g clip-path="url(#clip0_52_36678)">
<path fill-rule="evenodd" clip-rule="evenodd" d="M12.6039 7.64866C12.603 7.64741 12.6026 7.64584 12.6029 7.64431L13.6236 1.69224C13.6241 1.6895 13.6265 1.6875 13.6293 1.6875H13.9523C13.9548 1.6875 13.957 1.68912 13.9578 1.69149L16.2575 8.97284C16.2582 8.97509 16.2574 8.97759 16.2555 8.97906L14.5599 10.3029C14.5574 10.3049 14.5537 10.3044 14.5518 10.3018L12.6039 7.64866ZM0.224609 11.5944C0.224609 11.5969 0.226197 11.5991 0.228543 11.5999L3.72383 12.7427C3.72552 12.7433 3.72739 12.743 3.72886 12.742L11.5416 7.34825C11.543 7.34734 11.5438 7.34594 11.544 7.34438L12.3819 1.72276C12.3824 1.71931 12.3797 1.71621 12.3762 1.71621H5.45605C5.45433 1.71621 5.45273 1.71697 5.45164 1.71828L0.225923 8.02231C0.225074 8.02334 0.224609 8.02462 0.224609 8.02597V11.5944ZM5.18033 13.0339L8.99886 14.2847C9.00058 14.2853 9.00248 14.285 9.00395 14.284L13.5502 11.0229C13.5527 11.0212 13.5533 11.0177 13.5516 11.0151L11.8474 8.47903C11.8456 8.47638 11.842 8.47569 11.8394 8.4775L5.18033 13.0339Z" fill="#212121"/>
</g>
<defs>
<clipPath id="clip0_52_36678">
<rect width="16" height="16" fill="white" transform="translate(0.255859)"/>
</clipPath>
</defs>
</svg>
