<svg width="17" height="16" viewBox="0 0 17 16" fill="none" xmlns="http://www.w3.org/2000/svg">
<g clip-path="url(#clip0_52_36709)">
<path fill-rule="evenodd" clip-rule="evenodd" d="M7.37243 1.60502e-08C6.23752 9.67028e-05 5.1191 0.271595 4.11046 0.791843C3.10183 1.31209 2.23223 2.066 1.57422 2.99068C0.916213 3.91536 0.488873 4.98399 0.327856 6.10741C0.166839 7.23083 0.276814 8.37647 0.648606 9.44874C1.0204 10.521 1.64323 11.4888 2.46513 12.2715C3.28703 13.0541 4.28416 13.6288 5.37335 13.9476C6.46254 14.2665 7.61219 14.3203 8.72638 14.1045C9.84058 13.8887 10.887 13.4096 11.7784 12.7071L14.8362 15.765C14.9942 15.9175 15.2057 16.0019 15.4252 16C15.6448 15.9981 15.8548 15.91 16.01 15.7548C16.1653 15.5995 16.2533 15.3895 16.2552 15.17C16.2571 14.9504 16.1727 14.7389 16.0202 14.581L12.9623 11.5231C13.7896 10.4736 14.3047 9.21247 14.4487 7.88392C14.5926 6.55538 14.3596 5.21314 13.7764 4.01081C13.1931 2.80849 12.2832 1.79466 11.1506 1.08535C10.0181 0.376043 8.70875 -8.97127e-05 7.37243 1.60502e-08ZM1.92988 7.11717C1.92988 5.67372 2.50329 4.28939 3.52397 3.26871C4.54464 2.24804 5.92897 1.67463 7.37243 1.67463C8.81588 1.67463 10.2002 2.24804 11.2209 3.26871C12.2416 4.28939 12.815 5.67372 12.815 7.11717C12.815 8.56063 12.2416 9.94496 11.2209 10.9656C10.2002 11.9863 8.81588 12.5597 7.37243 12.5597C5.92897 12.5597 4.54464 11.9863 3.52397 10.9656C2.50329 9.94496 1.92988 8.56063 1.92988 7.11717Z" fill="#212121"/>
</g>
<defs>
<clipPath id="clip0_52_36709">
<rect width="16" height="16" fill="white" transform="translate(0.255859)"/>
</clipPath>
</defs>
</svg>
