<svg width="17" height="16" viewBox="0 0 17 16" fill="none" xmlns="http://www.w3.org/2000/svg">
<g clip-path="url(#clip0_52_36676)">
<path fill-rule="evenodd" clip-rule="evenodd" d="M0.257457 7.95397C0.255328 7.95034 0.255327 7.94584 0.257454 7.94219L4.2807 1.06826C4.2828 1.06469 4.28664 1.0625 4.29077 1.0625H12.265C12.2692 1.0625 12.273 1.06471 12.2751 1.06831L16.2543 7.94225C16.2564 7.94584 16.2564 7.95031 16.2543 7.95391L12.2751 14.8201C12.273 14.8237 12.2692 14.8259 12.265 14.8259H4.29077C4.28664 14.8259 4.2828 14.8238 4.2807 14.8202L0.257457 7.95397ZM11.9626 7.94422C11.9626 9.99072 10.3036 11.6497 8.25711 11.6497C6.21061 11.6497 4.55158 9.99072 4.55158 7.94422C4.55158 5.89769 6.21061 4.23869 8.25711 4.23869C10.3036 4.23869 11.9626 5.89769 11.9626 7.94422Z" fill="#212121"/>
</g>
<defs>
<clipPath id="clip0_52_36676">
<rect width="16" height="16" fill="white" transform="translate(0.255859)"/>
</clipPath>
</defs>
</svg>
