<svg width="17" height="16" viewBox="0 0 17 16" fill="none" xmlns="http://www.w3.org/2000/svg">
<path fill-rule="evenodd" clip-rule="evenodd" d="M13.4487 10.8286C13.4487 13.6843 11.125 15.9993 8.25855 15.9993C5.39208 15.9993 3.06836 13.6843 3.06836 10.8286C3.06836 8.05122 7.9778 0.423372 8.24705 0.00711906C8.2532 -0.00237308 8.26392 -0.002373 8.27005 0.00711916C8.5393 0.423372 13.4487 8.05122 13.4487 10.8286ZM7.39336 14.3416C4.75961 13.7653 5.2103 10.8478 5.2103 10.8478C5.2103 10.8478 5.92948 12.609 7.67477 13.1795C9.42002 13.75 11.5291 12.9133 11.5291 12.9133C11.5291 12.9133 10.0271 14.9178 7.39336 14.3416Z" fill="#212121"/>
</svg>
